/* XPM */
static char *c4892aa26443487df41f657c30eb5eb39NqJbAp4H6HUF2Gq[] = {
/* columns rows colors chars-per-pixel */
"60 60 207 2 ",
"   c #509B66",
".  c #000005",
"X  c #010109",
"o  c #020D0C",
"O  c #08040C",
"+  c #03140E",
"@  c #031A0C",
"#  c #0E0312",
"$  c #140216",
"%  c #160418",
"&  c #1B051B",
"*  c #1F0B1E",
"=  c #031611",
"-  c #031A11",
";  c #091E13",
":  c #121618",
">  c #23091D",
",  c #01250E",
"<  c #0B290C",
"1  c #093A09",
"2  c #07340B",
"3  c #032612",
"4  c #032A13",
"5  c #0B2317",
"6  c #16231C",
"7  c #043318",
"8  c #250424",
"9  c #2D0629",
"0  c #2E0829",
"q  c #290625",
"w  c #34062E",
"e  c #350B2C",
"r  c #201D27",
"t  c #37112B",
"y  c #3A0633",
"u  c #3A0831",
"i  c #192022",
"p  c #332F2F",
"a  c #263822",
"s  c #420C36",
"d  c #49093B",
"f  c #45133C",
"g  c #4A103C",
"h  c #471935",
"j  c #541E35",
"k  c #52193F",
"l  c #44162D",
"z  c #532135",
"x  c #54363E",
"c  c #09440A",
"v  c #0A4C07",
"b  c #0D590C",
"n  c #0D5209",
"m  c #054D1C",
"M  c #06541E",
"N  c #065D1B",
"B  c #127D0C",
"V  c #0A681A",
"C  c #107E1F",
"Z  c #0D7B1D",
"A  c #25711D",
"S  c #226618",
"D  c #064E20",
"F  c #0C4422",
"G  c #065421",
"H  c #065B21",
"J  c #095D22",
"K  c #0A5421",
"L  c #155022",
"P  c #076322",
"I  c #096422",
"U  c #096C23",
"Y  c #066823",
"T  c #0A7225",
"R  c #0B7826",
"E  c #167822",
"W  c #590E49",
"Q  c #520D45",
"!  c #610C4E",
"~  c #640C52",
"^  c #6E0E59",
"/  c #740D5B",
"(  c #6E1255",
")  c #6E1E52",
"_  c #76115D",
"`  c #672449",
"'  c #7C2758",
"]  c #7A0E64",
"[  c #7C1260",
"{  c #514844",
"}  c #59504A",
"|  c #7F4058",
" . c #655852",
".. c #80205D",
"X. c #850C6C",
"o. c #850B6B",
"O. c #821263",
"+. c #811A62",
"@. c #89136B",
"#. c #8E0E71",
"$. c #920C75",
"%. c #980F7B",
"&. c #991575",
"*. c #9E1D77",
"=. c #971676",
"-. c #A61D7C",
";. c #A3157F",
":. c #962267",
">. c #9E2174",
",. c #8A2562",
"<. c #AE2B7C",
"1. c #B32C7B",
"2. c #BA357F",
"3. c #AD347A",
"4. c #C43D76",
"5. c #AC5879",
"6. c #A67F7D",
"7. c #D3537C",
"8. c #CF4B7C",
"9. c #14970A",
"0. c #0E8B1E",
"q. c #0D861A",
"w. c #14861C",
"e. c #138C1A",
"r. c #0E9518",
"t. c #10911B",
"y. c #159716",
"u. c #14870C",
"i. c #208119",
"p. c #16AB0D",
"a. c #18B40D",
"s. c #1AA813",
"d. c #17B210",
"f. c #20B111",
"g. c #0E8321",
"h. c #0C8920",
"j. c #1FC111",
"k. c #21CA0E",
"l. c #B1817E",
"z. c #A41382",
"x. c #AD1B84",
"c. c #AC1786",
"v. c #B51C8B",
"b. c #B42483",
"n. c #B52983",
"m. c #BD2885",
"M. c #BD258A",
"N. c #BC2587",
"B. c #BC328A",
"V. c #BE3982",
"C. c #BF2693",
"Z. c #C62C8E",
"A. c #CD398D",
"S. c #C62B91",
"D. c #C92995",
"F. c #D02F94",
"G. c #CF3495",
"H. c #DB3B94",
"J. c #DE3D9A",
"K. c #D53E93",
"L. c #E23F97",
"P. c #C64787",
"I. c #DA508B",
"U. c #DD4494",
"Y. c #DC4995",
"T. c #D35094",
"R. c #DE5190",
"E. c #D9488E",
"W. c #F25D8E",
"Q. c #E4469A",
"!. c #EC4D9B",
"~. c #E64898",
"^. c #EB5394",
"/. c #EE529A",
"(. c #EF5999",
"). c #F25A93",
"_. c #F2549D",
"`. c #F45B9A",
"'. c #F9599C",
"]. c #FB6D96",
"[. c #F36999",
"{. c #E87297",
"}. c #F97C9C",
"|. c #F8779A",
" X c #EE699C",
".X c #FC5BA1",
"XX c #F468A8",
"oX c #EC74A8",
"OX c #DA8A95",
"+X c #F6849C",
"@X c #F38D9F",
"#X c #CBAF9E",
"$X c #C8A79A",
"%X c #EE89AC",
"&X c #F387A7",
"*X c #EF93A6",
"=X c #F696A1",
"-X c #FE93AB",
";X c #F79EA6",
":X c #F7A5AB",
">X c #F7B3AD",
",X c #F6BBAF",
"<X c #FFA5B0",
"1X c #F8B9B2",
"2X c #E8B3A9",
"3X c #EBC6B3",
"4X c #FFCFC6",
/* pixels */
"                                                                                                                        ",
"                                                                                                                        ",
"                                                                                                                        ",
"                                                                                                                        ",
"                                                                                                                        ",
"                                                                                                                        ",
"                                                                                                                        ",
"                                                                                                                        ",
"                                                                                                                        ",
"                                                                                                                        ",
"                                                                                                                        ",
"                                                                                                                        ",
"                                                                                                                        ",
"                                                                                                                        ",
"                                                                                                                        ",
"                                                      . . . . . .                                                       ",
"                                                    0 e h h t l e 9                                                     ",
"                                          X X o . % ~ >.V.8.4.1.z.~ % . X X X                                           ",
"                                        e Q g w $ % / S._.'.'.~.D.^ & 6 { } { p                                         ",
"                                      O ` P.B.X.w % ( M.~.'.'.Q.S.^ & } #X3X#X .O                                       ",
"                                    t ` 5.%XXXM.d $ ~ N.Q._.Q.G.v.~ $  .,X4X>X6. .p                                     ",
"                                  X k P.%X2X-XR.` > W x.J.Q.S.v.z.~ *  .2X<X&X:X$X{ .                                   ",
"                                  X f B.oX,X1X=X5.' ] #.M.F.v.z.#.+.| l.2X<X}.-XOXx .                                   ",
"                                  X y =.T.*X1X1X&XU.*.] z.v.z.%.#.3.{.;X>X;X}.].7.z X                                   ",
"                                  X y &.T.=X:X&XXX_.A.1.x.z.$.&.2.I.[.|.+X+X}.].7.j X                                   ",
"                                  X y &.T.@X}._._./.!.K.-.X.o.*.E.).W.W.W.].+X].7.j X                                   ",
"                                  X y &.K. X[./././.J.b.Q Q ] c.Z.Q.^.).W.[.+X].7.j X                                   ",
"                                  X w ] <.U.!./._.~.b.[ y u ^ %.-.F.^.).).[.{.[.8.j X                                   ",
"                                    % w ( N.L./..XY.) y ..,.g Q $.Z./.`.(.^.Y.H.1.d .                                   ",
"                                      X y O.n.U.!.P.) k n.<.e 8 o.Z.~.^.!.J.D.<._ y X                                   ",
"                                        $ w ^ 1.Z.b.V.V.S.=.8 q o.Z.H.U.H.F.x.! q %                                     ",
"                                        . . u ( / O.B.U.D.X.8 9 @.-.:.:.:.@._ u .                                       ",
"                                      X X X # & & 0 [ N.v.O.8 0 @.[ e > > > & %                                         ",
"                                    - 3 4 3 3 3 4 5 f ^ / W i r Q f 5 , 3 3 3 +                                         ",
"                                  X 3 H P P P Y I K 5 % $ : F F : 6 G P J I K 4 X                                       ",
"                                  X 3 P T T g.0.g.Y 4 . . + K I b V w.R T T U m 4 @                                     ",
"                                  X 4 V T T r.p.r.I 3 X X = D g.s.a.s.w.T U T U N 3 X                                   ",
"                                  X 2 e.0.R q.y.0.U 4 X X = D w.f.k.s.e.U C t.w.Y 3 X                                   ",
"                                  X c 9.r.U U U U N 4 X X = m C a.a.a.e.U e.s.e.I 4 X                                   ",
"                                    2 v c 7 7 7 7 4 ;   X = M V b B a.d.y.A A C V 4 X                                   ",
"                                      X X o X X X X     X 3 M m @ 1 9.s.9.S a L N 4 X                                   ",
"                                                    X = 7 m V m o o 1 v c < : ; 4 @                                     ",
"                                                    X o 7 J Y m + . X . O X X X X                                       ",
"                                                    X o = 7 J m + .                                                     ",
"                                                      o X - K m + X                                                     ",
"                                                        X - G m + X                                                     ",
"                                                        X - M m = X                                                     ",
"                                                        . @ M m + X                                                     ",
"                                                        X , V V + X                                                     ",
"                                                        . < u.B @ X                                                     ",
"                                                        X @ n b ,                                                       ",
"                                                        X X o o                                                         ",
"                                                          X X                                                           ",
"                                                                                                                        ",
"                                                                                                                        ",
"                                                                                                                        ",
"                                                                                                                        ",
"                                                                                                                        ",
"                                                                                                                        ",
"                                                                                                                        "
};
