/* XPM */
static char *_cc57acbf4a64c00a67e24f5d0ba63e6W6udFVtSAbu10d2a[] = {
/* columns rows colors chars-per-pixel */
"32 32 156 2 ",
"   c None",
".  c #010006",
"X  c #000007",
"o  c #010107",
"O  c #000008",
"+  c #010108",
"@  c #020008",
"#  c #030008",
"$  c #020108",
"%  c #020109",
"&  c #010208",
"*  c #010209",
"=  c #010309",
"-  c #020208",
";  c #030208",
":  c #020308",
">  c #030308",
",  c #020209",
"<  c #020309",
"1  c #030309",
"2  c #01000A",
"3  c #00010A",
"4  c #01010A",
"5  c #01010B",
"6  c #02010A",
"7  c #03010A",
"8  c #02010B",
"9  c #00020A",
"0  c #01020A",
"q  c #01030A",
"w  c #01020B",
"e  c #02020A",
"r  c #03020A",
"t  c #02030A",
"y  c #02020B",
"u  c #040008",
"i  c #040009",
"p  c #04010A",
"a  c #030409",
"s  c #04000D",
"d  c #2F3328",
"f  c #0D5C22",
"g  c #066127",
"h  c #076526",
"j  c #056A21",
"k  c #076822",
"l  c #056B22",
"z  c #076825",
"x  c #076A26",
"c  c #066E27",
"v  c #086F23",
"b  c #0B6E23",
"n  c #086B24",
"m  c #096A25",
"M  c #086A26",
"N  c #0B6A26",
"B  c #086E25",
"V  c #086F25",
"C  c #0A6F25",
"Z  c #086E26",
"A  c #0C6E25",
"S  c #096229",
"D  c #0A6A28",
"F  c #067123",
"G  c #067620",
"H  c #077324",
"J  c #097325",
"K  c #0A7325",
"L  c #0B7026",
"P  c #690061",
"I  c #7C0566",
"U  c #830768",
"Y  c #9C0F7C",
"T  c #9E1179",
"R  c #9F117D",
"E  c #A30E7F",
"W  c #A2157D",
"Q  c #A9177B",
"!  c #A8157F",
"~  c #A8177F",
"^  c #A41A7D",
"/  c #1E9E1B",
"(  c #14BC05",
")  c #17BC06",
"_  c #15B30F",
"`  c #1CB70B",
"'  c #19B40E",
"]  c #1BB80B",
"[  c #18B80C",
"{  c #1FC50A",
"}  c #23C50E",
"|  c #A41081",
" . c #A71381",
".. c #A51481",
"X. c #A01384",
"o. c #A31484",
"O. c #A81280",
"+. c #AB1483",
"@. c #AB1587",
"#. c #AF1584",
"$. c #AC1A87",
"%. c #B11C87",
"&. c #B31C86",
"*. c #B31D86",
"=. c #B41A8D",
"-. c #B71B8C",
";. c #B31C8D",
":. c #B81C8B",
">. c #B31B90",
",. c #B31D90",
"<. c #D4338D",
"1. c #D3348F",
"2. c #D23398",
"3. c #E63E9E",
"4. c #E74289",
"5. c #EF5B8A",
"6. c #ED5D89",
"7. c #EF5B8F",
"8. c #F25B8C",
"9. c #F15B8F",
"0. c #EF4F9A",
"q. c #F24D9F",
"w. c #EC529A",
"e. c #EF529A",
"r. c #EE539A",
"t. c #EE5598",
"y. c #EE519C",
"u. c #EF519C",
"i. c #EF529E",
"p. c #EF529F",
"a. c #F25993",
"s. c #F15A94",
"d. c #F35E97",
"f. c #F4519A",
"g. c #F15899",
"h. c #F1599A",
"j. c #F5599C",
"k. c #F75C9D",
"l. c #F65E9F",
"z. c #F8779C",
"x. c #FA7A9C",
"c. c #F87F9C",
"v. c #EE56A8",
"b. c #F352A0",
"n. c #F355A8",
"m. c #F5859D",
"M. c #F6869D",
"N. c #FC9CA2",
"B. c #FAA3A3",
"V. c #F8C3B4",
"C. c #FAC2B6",
"Z. c #F6D5BA",
"A. c #F3D1BC",
"S. c #F6D5BE",
"D. c #F8D6B8",
"F. c #F8D6BF",
/* pixels */
"                                                                ",
"                                                                ",
"                                                                ",
"                                                                ",
"                                                                ",
"                                                                ",
"                                                                ",
"                                                                ",
"                            2 a q q                             ",
"                      2 2 a *.k.4.-.2 2 2                       ",
"                    o n.E 2 $.l.j.;.o S.S.o                     ",
"                  2 v.D.f.q T q.;.R 2 C.x.A.o                   ",
"                  q  .N.Z.b.P -.o.U M.V.x.6.o                   ",
"                  q +.B.r.r.0.R I d.a.8.c.5.u                   ",
"                  q O.r.r.i.@.2 X.-.a.a.m.7.p                   ",
"                    2 #.r.f.s 3.2 W h.h.2.&.p                   ",
"                      2 ^ Q b.-.2  .1.1.$.o                     ",
"                    q 2 a 2 W ~ 2 W a > 2                       ",
"                  2 c Z Z N a p S p n D n o                     ",
"                  q H A ( K q 2 h } / F b J 2                   ",
"                  q ) L K J 2 p n { _ f ' H o                   ",
"                    q q q q   p k 2 ] ] d G q                   ",
"                            2 g k 2 > q q q                     ",
"                            t t v 2                             ",
"                              q Z 2                             ",
"                              2 k 2                             ",
"                              > ] 2                             ",
"                              2 2                               ",
"                                                                ",
"                                                                ",
"                                                                ",
"                                                                "
};
