/* XPM */
static char *_77af5521aff41aeeffe15c3a82ffab9dNAboww5MKZnzBcJ[] = {
/* columns rows colors chars-per-pixel */
"60 60 130 2 ",
"   c #509B66",
".  c #000A34",
"X  c #001036",
"o  c #001139",
"O  c #00163A",
"+  c #00163B",
"@  c #00103C",
"#  c #00133C",
"$  c #00133D",
"%  c #00163C",
"&  c #00173E",
"*  c #00183D",
"=  c #00183F",
"-  c #041F41",
";  c #0D294D",
":  c #132944",
">  c #142944",
",  c #142A47",
"<  c #142D4C",
"1  c #162F4E",
"2  c #223348",
"3  c #253548",
"4  c #293749",
"5  c #2A3849",
"6  c #2B3849",
"7  c #2B384A",
"8  c #2A394B",
"9  c #2A3D55",
"0  c #29405D",
"q  c #2B415E",
"w  c #2B425F",
"e  c #40464E",
"r  c #484B4F",
"t  c #484C50",
"y  c #48505A",
"u  c #595754",
"i  c #665D51",
"p  c #696257",
"a  c #696258",
"s  c #6A6258",
"d  c #726859",
"f  c #40546D",
"g  c #48596D",
"h  c #445871",
"j  c #485B73",
"k  c #485C73",
"l  c #485C74",
"z  c #495C74",
"x  c #516379",
"c  c #786E60",
"v  c #8F7A5E",
"b  c #8F7A5F",
"n  c #9B8363",
"m  c #8D8374",
"M  c #A88C66",
"N  c #B09167",
"B  c #B69366",
"V  c #B2956E",
"C  c #B99769",
"Z  c #D5A86D",
"A  c #D6A96F",
"S  c #ECB773",
"D  c #ECB875",
"F  c #ECB975",
"G  c #EFBA75",
"H  c #F1BC76",
"J  c #FFC477",
"K  c #FFC875",
"L  c #FFC977",
"P  c #FFCB77",
"I  c #FFC678",
"U  c #FFCA79",
"Y  c #FFCD78",
"T  c #FFC87F",
"R  c #FFD17B",
"E  c #FFD27C",
"W  c #8D9499",
"Q  c #B2A899",
"!  c #8C99A7",
"~  c #939DA8",
"^  c #95A0AA",
"/  c #9BA5AE",
"(  c #B2B9BD",
")  c #D3B58D",
"_  c #C1BBB0",
"`  c #EEC083",
"'  c #FFC982",
"]  c #FFCB83",
"[  c #FFCD83",
"{  c #FFCB86",
"}  c #FFD796",
"|  c #FCD39C",
" . c #FFE0A3",
".. c #FFE2B9",
"X. c #FFE7BB",
"o. c #FFE4BE",
"O. c #B6BEC3",
"+. c #BDC3C6",
"@. c #D3CEC4",
"#. c #D3D6D6",
"$. c #D5D8D7",
"%. c #D3D7D9",
"&. c #D6D9D8",
"*. c #D9DBDA",
"=. c #F7E1C0",
"-. c #FFE5C0",
";. c #FFE6C2",
":. c #FFE8C2",
">. c #FFE9C3",
",. c #FFF2DD",
"<. c #FCF1DF",
"1. c #FFF4DD",
"2. c #F3F2EC",
"3. c #FFFFEA",
"4. c #FFF9EC",
"5. c #FCFBF3",
"6. c #FDFBF3",
"7. c #FEFCF3",
"8. c #FFFDF4",
"9. c #FFFDF5",
"0. c #FFFEF5",
"q. c #FCFDF7",
"w. c #FFFEF6",
"e. c #FFFFF6",
"r. c #FFFEF8",
"t. c #FFFFF8",
"y. c #FFFFFB",
"u. c #FFFFFD",
"i. c #FFFFFE",
"p. c white",
/* pixels */
"        + + + + + + + + + + # # *                                                     + # + + + + + + + + + + +         ",
"      0 h z j j j j j j j j j j f                                                     f z j k k j j j j j j j h 0       ",
"    * x +.*.#.#.%.#.#.#.#.#.$.&./ 0 X                                             X 0 / &.&.#.#.#.#.#.%.#.#.*.+.x *     ",
"  0 x ^ 2.u.y.u.u.u.u.u.u.u.u.u.+.w X                                             X 0 O.u.u.u.u.u.u.u.u.u.u.u.2.^ x 0   ",
"# h +.2.6.e.e.e.7.7.e.7.e.7.e.y.( 0 .                                             X q ( y.e.7.7.6.e.e.6.e.e.e.6.2.+.h * ",
"# j *.u.e.y.e.,.;.o.o.;.o.o.;.>.Q 9 #                                             # 9 Q >.>.;.o.;.o.o.;.,.e.e.e.u.*.z # ",
"+ k #.y.e.e.4...{ T ' ' ' ' [ [ V 8 #                                             # 8 V [ [ ' ' ' ' ' { ..4.6.e.y.#.k # ",
"+ k #.y.e.1...} U P J P P P P Y B 4 #                                             # 6 B P P P J P J P U } X.,.6.u.#.k * ",
"+ j #.u.e.o.` S D D D D F F F H M 8 #                                             # 8 M H H F F F F F F S ` =.e.u.#.j # ",
"+ k #.u.7._ c i p a a a a a s s u 2                                                 2 u a a a a p p a p p d _ 7.u.#.k + ",
"# j #.u.5.~ < + - - - - - - - - :                                                     - - - - - - - - - X < ~ 5.u.#.k + ",
"* z %.u.y.! ; .                                                                                         . ; ! 5.u.%.z + ",
"# g @.3.<.W <                                                                                             < W 4.3.@.g # ",
"* y )  .| m >                                                                                             > m |  .) y # ",
"- t Z E J b : @                                                                                         # > b J E Z t - ",
"# t A E I b > @                                                                                         @ > b I E A t # ",
"- e n C B d :                                                                                             : d N C n e # ",
"    4 8 3 3                                                                                                 3 8 8 8     ",
"    # # #                                                                                                     # # #     ",
"                                                                                                                        ",
"                                                                                                                        ",
"                                                                                                                        ",
"                                                                                                                        ",
"                                                                                                                        ",
"                                                                                                                        ",
"                                                                                                                        ",
"                                                                                                                        ",
"                                                                                                                        ",
"                                                                                                                        ",
"                                                                                                                        ",
"                                                                                                                        ",
"                                                                                                                        ",
"                                                                                                                        ",
"                                                                                                                        ",
"                                                                                                                        ",
"                                                                                                                        ",
"                                                                                                                        ",
"                                                                                                                        ",
"                                                                                                                        ",
"                                                                                                                        ",
"                                                                                                                        ",
"    # # #                                                                                                     # # #     ",
"    3 4 8 3                                                                                                 3 8 8 8     ",
"- e n C B d :                                                                                             : d N C n e * ",
"- r Z T T b : @                                                                                         @ : b I E Z t - ",
"# r Z E I b : @                                                                                         @ : b T R Z t # ",
"# y )  .| b ,                                                                                             , b |  .) y # ",
"* g @.3.4.W <                                                                                             < W 4.3.@.g * ",
"# z %.u.y.! ; .                                                                                         . ; ! y.u.%.z # ",
"+ l %.u.5.~ < + - - - - - - - - -                                                     - - - - - - - - - + < ~ 6.u.#.l # ",
"+ k #.u.7._ c i p a a a a a a p u 2                                                 2 u a p a a a a a p i c _ 7.u.#.j + ",
"+ k #.u.e.=.` S F F F S F F H H M 8 #                                             # 8 M H H F F F F F F S ` o.7.u.#.j + ",
"+ j #.u.7.,...} P J P P J P P Y B 8 #                                             # 6 B Y P J P P P J U } X.<.e.u.#.j + ",
"+ j #.u.e.e.4...{ T ' ' ' ' [ [ V 8 #                                             # 8 V [ [ ' ' ' ' T { ..4.e.7.u.#.j + ",
"+ j *.u.e.e.e.,.;.o.;.o.;.o.;.>.Q 9 #                                             # 9 Q >.>.;.o.o.;.o.;.,.e.e.e.u.*.z * ",
"# h +.2.6.e.e.e.e.7.7.e.7.e.e.y.( q X                                             X 0 ( y.e.6.e.e.7.6.e.6.e.e.5.2.+.h # ",
"  0 x ^ 2.u.u.u.u.u.u.u.u.u.u.u.O.w #                                             X 0 O.u.u.u.u.u.u.u.u.u.y.u.2.~ x 0   ",
"    * x +.*.#.#.#.#.#.%.#.#.&.&./ 9 X                                             X 0 / &.$.%.#.#.#.#.%.#.#.*.+.x *     ",
"      0 h z j k j j j j j j j j f                                                     f k k k k j j j j j j j h 0       ",
"        + + + + + + + + + + + + +                                                     # + + + * + + + + + + + +         "
};
