/* XPM */
static char *_a698d66a52640009ef9e29d3e653ac1CN6ZTPVWCPMRZ34P[] = {
/* columns rows colors chars-per-pixel */
"60 60 159 2 ",
"   c #509B66",
".- c #190A0F",
"X- c #140A12",
"o- c #1A0D12",
"O- c #1C1016",
"+- c #1D141A",
"@- c #1F181F",
"#- c #22151A",
"$- c #24181D",
"%- c #291A1D",
"&- c #1F1920",
"*- c #211C23",
"=- c #3B1A23",
"-- c #2E2123",
";- c #24222C",
":- c #2C252D",
">- c #332425",
",- c #31272A",
"<- c #3C2B2A",
"1- c #37262D",
"2- c #262630",
"3- c #272934",
"4- c #292A34",
"5- c #2B2E39",
"6- c #2B313D",
"7- c #3A3032",
"8- c #30343D",
"9- c #461825",
"0- c #561B2F",
"q- c #601F2C",
"w- c #721F34",
"e- c #43312F",
"r- c #552835",
"t- c #592D39",
"y- c #473532",
"u- c #493632",
"i- c #453D3F",
"p- c #4B3E3C",
"a- c #553635",
"s- c #63222F",
"d- c #6F2233",
"f- c #732136",
"g- c #67343D",
"h- c #51423F",
"j- c #2C3544",
"k- c #2E3D4D",
"l- c #343646",
"z- c #393747",
"x- c #3D3D44",
"c- c #363648",
"v- c #303E4D",
"b- c #2F3F50",
"n- c #303F51",
"m- c #473F41",
"M- c #5A3443",
"N- c #573341",
"B- c #2E404F",
"V- c #32404E",
"C- c #2E4050",
"Z- c #324253",
"A- c #3F4455",
"S- c #324E62",
"D- c #3C5667",
"F- c #3D5768",
"G- c #3D5B6D",
"H- c #32546B",
"J- c #3F5E70",
"K- c #355A72",
"L- c #3D657C",
"P- c #484142",
"I- c #5E4C45",
"U- c #534440",
"Y- c #4E4650",
"T- c #604B43",
"R- c #764043",
"E- c #7E4546",
"W- c #6D564C",
"Q- c #765A4F",
"!- c #6D5B5D",
"~- c #7B6053",
"^- c #7B6458",
"/- c #435663",
"(- c #455966",
")- c #465A69",
"_- c #4D5E6A",
"`- c #515C65",
"'- c #445E72",
"]- c #485F74",
"[- c #446174",
"{- c #496177",
"}- c #45667B",
"|- c #496A7F",
" ! c #616B70",
"!! c #81263E",
"X! c #902646",
"o! c #952748",
"O! c #9D254C",
"+! c #952848",
"@! c #9F284E",
"#! c #9E3E52",
"$! c #A02A4F",
"%! c #A12D50",
"&! c #A63254",
"*! c #905452",
"=! c #AD465D",
"-! c #836658",
";! c #85695B",
":! c #866959",
">! c #B85967",
",! c #937564",
"<! c #9E7D69",
"1! c #BD616B",
"2! c #BE7874",
"3! c #C3636E",
"4! c #C76F72",
"5! c #C86E72",
"6! c #A1836F",
"7! c #A28670",
"8! c #AA8373",
"9! c #AE8C75",
"0! c #B38F76",
"q! c #B69379",
"w! c #CC897D",
"e! c #C6957E",
"r! c #3E6B83",
"t! c #3F6F88",
"y! c #406D85",
"u! c #4B6D82",
"i! c #416F88",
"p! c #4D7187",
"a! c #41728C",
"s! c #4E748A",
"d! c #437792",
"f! c #978B80",
"g! c #AE9987",
"h! c #C09B80",
"j! c #C39680",
"k! c #C8A386",
"l! c #D3A288",
"z! c #D9A68C",
"x! c #D5AD8D",
"c! c #DCB291",
"v! c #E2AC90",
"b! c #E0B493",
"n! c #EEB697",
"m! c #E6BA97",
"M! c #E8BB97",
"N! c #EEB698",
"B! c #EBBD99",
"V! c #F3BD9C",
"C! c #EFC19C",
"Z! c #F2C29D",
"A! c #F9C29F",
"S! c #F7C7A1",
"D! c #F4C8A0",
"F! c #FCCBA3",
"G! c #FAC3A0",
"H! c #FFD1A6",
"J! c #FFD4A9",
/* pixels */
"                                                                                                                        ",
"                                                                                                                        ",
"                                                                                                                        ",
"                                                                                                                        ",
"                                                                                                                        ",
"                                                                                                                        ",
"                                                                                                                        ",
"                                                                                                                        ",
"                                                                                                                        ",
"                                                                                                                        ",
"                                                                                                                        ",
"                                                                                                                        ",
"                                                                                                                        ",
"                                                                                                                        ",
"                                              X-X-X-X-X-X-X-X-X-X-X-X-X-X-                                              ",
"                                            e-y-y-y-y-y-y-y-y-y-y-y-y-y-u-<-                                            ",
"                                          $-W-0!q!0!0!0!0!0!0!0!0!0!0!q!9!W-$-                                          ",
"                                          $-~-b!Z!C!Z!C!C!C!C!C!C!Z!Z!Z!M!-!$-                                          ",
"                                          $-~-c!A!S!F!S!S!S!F!F!S!S!F!F!Z!;!$-                                          ",
"                                          $-~-c!S!F!H!H!H!H!F!F!F!H!F!J!S!:!%-                                          ",
"                                          $-~-c!S!F!F!S!S!F!F!F!F!F!F!H!Z!;!$-                                          ",
"                                          $-~-c!F!Z!k!0!9!h!B!F!F!F!F!b!0!T-#-                                          ",
"                                          #-~-c!F!M!,!U-h-^-x!F!F!H!F!q!I-,-+-                                          ",
"                                          #-~-c!F!m!;!7-:-W-x!J!J!J!F!9!p-*-+-                                          ",
"                                          $-~-c!F!M!,!P-h-~-k!G!A!A!V!0!I->-+-                                          ",
"                                          $-~-c!H!D!k!7!6!8!2!5!4!4!4!2!6!I-#-                                          ",
"                                          $-Q-l!n!n!v!z!z!w!=!O!$!@!@!1!e!Q-$-                                          ",
"                                          #-g->!3!3!3!1!>!>!&!O!O!O!@!#!*!a-#-                                          ",
"                                          #-0-X!o!o!o!o!o!o!+!+!+!+!+!!!s-=-+-                                          ",
"                                          #-9-w-w-w-w-f-f-f-f-f-f-f-f-f-q-=-+-                                          ",
"                                          +-=-N-M-M-M-M-t-r-r-g-E-R-t-r-r-=-+-                                          ",
"                                          @-l-'-{-]-]-)-A-c-c-!-e!8!Y-c-c-:-+-                                          ",
"                                          @-b-t!d!a!d!y!G-S-S- !g!f!)-S-Z-j-+-                                          ",
"                                          +-n-i!i!i!i!i!y!L-r![-`-_-L-t!L-k-@-                                          ",
"                                          @-k-t!a!a!a!a!a!a!a!r!H-K-t!d!t!B-+-                                          ",
"                                          @-k-r!a!i!i!i!i!i!a!y!r!r!i!a!t!k-@-                                          ",
"                                          +-8-/-)-)-(-(-(-(-(-)-(-(-(-)-/-8-+-                                          ",
"                                          +-,-i-m-m-m-m-m-m-m-m-P-P-m-P-i-,-+-                                          ",
"                                          +-:-x-x-x-x-x-x-x-x-x-x-x-x-x-x-:-+-                                          ",
"                                          +-2-v-Z-Z-n-n-v-v-k-k-v-n-Z-Z-v-2-+-                                          ",
"                                          +-2-Z-Z-C-6-3-2-2-2-2-2-5-k-Z-C-3-+-                                          ",
"                                          +-3-k-C-j-;-O-O-O-O-+-O-2-k-Z-k-2-+-                                          ",
"                                          +-3-k-6-;-&-        o-o-2-k-j-;-*-                                            ",
"                                          +-2-j-2-O-            +-*-j-3-@-                                              ",
"                                          +-&-*-*-              O-&-*-*-                                                ",
"                                          O-+-O-                O-O-O-O-                                                ",
"                                                                                                                        ",
"                                                                                                                        ",
"                                                                                                                        ",
"                                                                                                                        ",
"                                                                                                                        ",
"                                                                                                                        ",
"                                                                                                                        ",
"                                                                                                                        ",
"                                                                                                                        ",
"                                                                                                                        ",
"                                                                                                                        ",
"                                                                                                                        ",
"                                                                                                                        ",
"                                                                                                                        "
};
