/* XPM */
static char *_1da136479764d78b26853113db7cfaa3Pz9yBIPauB1tDwy[] = {
/* columns rows colors chars-per-pixel */
"60 60 195 2 ",
"   c #509B66",
".  c #11070F",
"X  c #170212",
"o  c #190611",
"O  c #150A12",
"+  c #1A0C14",
"@  c #1B0F1B",
"#  c #1C1117",
"$  c #1E1419",
"%  c #1F191C",
"&  c #21151B",
"*  c #221C1E",
"=  c #281B1F",
"-  c #24241F",
";  c #1B0F24",
":  c #1E1125",
">  c #211521",
",  c #2A1D22",
"<  c #26192A",
"1  c #291B2C",
"2  c #222221",
"3  c #2E2225",
"4  c #242B25",
"5  c #262E28",
"6  c #2E262A",
"7  c #312225",
"8  c #332629",
"9  c #35292B",
"0  c #3C2D2E",
"q  c #2D3A25",
"w  c #273229",
"e  c #2A342C",
"r  c #2A3A2E",
"t  c #273624",
"y  c #34342D",
"u  c #353A28",
"i  c #322331",
"p  c #362932",
"a  c #3A2C33",
"s  c #2B3E31",
"d  c #2B3130",
"f  c #402F2F",
"g  c #412F30",
"h  c #423233",
"j  c #493736",
"k  c #453738",
"l  c #463939",
"z  c #4C3C3A",
"x  c #4B3837",
"c  c #503A3B",
"v  c #2E4B2C",
"b  c #2F4528",
"n  c #314D2A",
"m  c #32532B",
"M  c #365D2E",
"N  c #2D4435",
"B  c #2E4936",
"V  c #2F4938",
"C  c #314E3A",
"Z  c #364730",
"A  c #335E30",
"S  c #33543E",
"D  c #345B3B",
"F  c #385632",
"G  c #356334",
"H  c #376C35",
"J  c #396F35",
"K  c #396D38",
"L  c #3C7537",
"P  c #3E7B3B",
"I  c #404F24",
"U  c #435B2B",
"Y  c #4F403E",
"T  c #52413F",
"R  c #455C3C",
"E  c #4A563D",
"W  c #525337",
"Q  c #4B6227",
"!  c #496C3F",
"~  c #4E6434",
"^  c #537335",
"/  c #667C3B",
"(  c #345741",
")  c #355B43",
"_  c #376146",
"`  c #386446",
"'  c #376449",
"]  c #386548",
"[  c #3B6D4C",
"{  c #396845",
"}  c #3E7F47",
"|  c #3D744E",
" . c #3F7B4E",
".. c #3B7742",
"X. c #3E7650",
"o. c #3F7A51",
"O. c #544342",
"+. c #5A4543",
"@. c #5E4945",
"#. c #5E4C4B",
"$. c #614B47",
"%. c #644D49",
"&. c #6A534E",
"*. c #67524C",
"=. c #6C5552",
"-. c #705650",
";. c #765B54",
":. c #795D56",
">. c #7B5F58",
",. c #417D4E",
"<. c #497E42",
"1. c #517D41",
"2. c #407D51",
"3. c #74634E",
"4. c #79724D",
"5. c #7A6157",
"6. c #7C6159",
"7. c #82665D",
"8. c #83695F",
"9. c #856B60",
"0. c #8A6F63",
"q. c #8D7265",
"w. c #927568",
"e. c #967A6C",
"r. c #9A7D6F",
"t. c #3E803B",
"y. c #43863E",
"u. c #4A8A3A",
"i. c #48933F",
"p. c #659A36",
"a. c #57A03F",
"s. c #60A03B",
"d. c #6AB43F",
"f. c #78BA3C",
"g. c #78C03E",
"h. c #3F8150",
"j. c #418447",
"k. c #448C44",
"l. c #42834D",
"z. c #438B4C",
"x. c #4B8A49",
"c. c #518A45",
"v. c #459342",
"b. c #469A43",
"n. c #499D44",
"m. c #45944B",
"M. c #4A944A",
"N. c #469A49",
"B. c #499D49",
"V. c #499045",
"C. c #53944A",
"Z. c #52994A",
"A. c #418250",
"S. c #448A50",
"D. c #619442",
"F. c #46A246",
"G. c #4AA547",
"H. c #4CA947",
"J. c #4AA348",
"K. c #4CAB48",
"L. c #47A148",
"P. c #52A546",
"I. c #51AA46",
"U. c #55AF46",
"Y. c #52AC46",
"T. c #5DAA46",
"R. c #55A349",
"E. c #5DA549",
"W. c #52AF48",
"Q. c #55B046",
"!. c #5AB145",
"~. c #5DB445",
"^. c #53B148",
"/. c #5DBC48",
"(. c #64AC46",
"). c #6CAE44",
"_. c #64A348",
"`. c #6CA740",
"'. c #63B445",
"]. c #6AB343",
"[. c #63BA45",
"{. c #6ABC44",
"}. c #71B546",
"|. c #73BC42",
" X c #7BBF43",
".X c #6EC445",
"XX c #73C243",
"oX c #7CC542",
"OX c #7DCA43",
"+X c #83C43D",
"@X c #86B041",
"#X c #9D8070",
"$X c #A38676",
"%X c #82CC41",
"&X c #85C640",
/* pixels */
"                                                                                                                        ",
"                                                                                                                        ",
"                                                                                                                        ",
"                                                                                                                        ",
"                                                    # $ $ $ # $                                                         ",
"                                                    w r r r r w %                                                       ",
"                                              $ $ * S [ [ [ [ S 2 # $ $     $ $ $ $ $                                   ",
"                                            w N s B ) 2.S.z.2.` B s N w % 5 s s N s s 2   +                             ",
"                                          $ s ] | | | l.N.N.l.| | | [ V 2 N [ | | X.) e $ % %                           ",
"                                          $ s | S.m.m.M.J.J.N.z.m.S.o.) V ) X.z.z.A.[ S B V s %                         ",
"                                          2 B | m.J.J.B.G.H.I.I.H.v.,.|  .| ,.m.J.M.,.,.| | S 2 +                       ",
"                                      + 5 C _ | m.J.m.z.N.Q.g.XXY.J.N.m.m.m.N.L.I.).}.Z.m.h.S , +                       ",
"                                      2 N [ o.h.m.J.z.l.N.!.OXoXQ.J.B.P.U.I.B.N.J.|.%X~.N.l.) 5 *                       ",
"                              + + + 4 S ` | l.m.G.G.B.N.F.Y.~.~.H.N.z.E.oX(.l.} z.E.~.Q.N.,.] ) N *                     ",
"                              2 4 2 s ] o.,.Z.!.Y.G.F.N.J.G.H.F.J.z.h._.&X(.l. .h.m.K.G.B.z.2.X.C % +                   ",
"                          + 2 C ) ) ` X.l.n.{.OX{.G.z.l.N.H.H.N.l.l.m.P.!.P.N.N.N.J.G.H.J.B.m.X.C % +                   ",
"                          2 s ` 2.A.l.h.m.G.{.OX[.G.Z.C.R.K.K.B.l.M.'.!.K.G.K.~.~.^.K.~.!.B.m.2.C * +                   ",
"                      + 2 C ] [ l.M.J.B.J.G.Y.!.I.I.|.oX~.G.K.J.F.'.+XXXK.F.K.XX+X[.!.g.&Xx.2.X.C * +                   ",
"                      4 s _ 2.l.m.K.!.[.T.N.N.G.G.Y..Xg.u.J J P N.~.oX'.N.N.G.p.p.a.^..X].x.' S s %                     ",
"                  + * V [ [ ,.N.F.H.[.+X).l.z.G.G.G.Q.i.n - % v v.^.Y.M.l.m.n.M q L K.!.R.l.) 5 %                       ",
"                  + * C o.A.m.J.v.J u.f.(.z.m.G.N.z.m...4 o X q p.[.K.N.z.N.b.v & Z <.N.N.h.C > o                       ",
"                  + , C ,.N.J.K.P t m i.Y.G.G.G.z.,.o.{ t # # I f.OXW.J.G.W.i.n * 0 E C.J.l.( 2 +                       ",
"                % w N _  .m.H.H.i.G L F.H.H.F.H.T._.Z.j.L A M u.d.{.H.K.K..Xd.U * b ^ ].].x.' C e %                     ",
"                % B [ | l.B.I.H.F.b.b.n.G.I.H.K.oX%X'.N.b.i.i.i.G.G.G.F.F..X+XQ - J !.OX Xx.X.[ C * +                   ",
"              + % V  .l.B.{..XQ.y.A F <.D.|.[.I.[.{.P.j.G m m G ,.N.G.N.z.E.].~ y P K.{.].B.z.o.S % +                   ",
"              + $ B | m.I.&X%X~.t.5 , a / &X.XH.N.v.l.] 5 # # w ` l.v.k.,.m.J.! E u.Q.K.K.J.N. .S % +                   ",
"              + % V X.h.M.T.[.Y.k.D e 3 U (./.J.J v { ] 5 o O 4 ` ` n G z.L.F.V.c.).oX!.N.z.A.o.C % +                   ",
"                $ N ` [ o.m.K.H.N.l.D t M B.K.u.b % N S 4 @ , e D N * m P.!.H.L.P.oX%X~.N.h.[ ' B %                     ",
"                  2 e )  .N.H.K.K.N.k.t.y.G.k.R 8 # 2 2 $ = x T y % # Q f..XH.v.z.E.~.Q.N.l.) r 2                       ",
"                  + % C o.m.N.B.B.K.J.J.N.y.R l 9 & & # = h &.$.= @ 3 ~ @Xd.y.h.,.z.N.L.N.h.( * +                       ",
"                  + * C o.2.,.,.z.J.J.l.D q y l k 0 & = x &.;.+., 7 +.;.4.W q H m.z. .l.h.o.S , +                       ",
"                    % N S S ) [ 2.m.m.X.N & = 0 l l f g %.>.:.$.g x -.9.6.c * G m.A.| ) S S N 2                         ",
"                      - , * e _ |  .o.| B $ # , 9 z @.&.;.;.:.-.&.&.;.q.r.@.* B  .2.] r - , %                           ",
"                        O O 2 N S C S C r % + $ 8 z &.:.:.;.;.:.:.:.;.>.;.j * w V S V 2 O +                             ",
"                              % % * * * %   + & 6 z *.:.>.;.;.:.;.:.:.+.8 & $ % * % *                                   ",
"                                + + + +       $ 8 O.5.w.w.q.6.;.;.9.0.+.& O + + + +                                     ",
"                                              $ 6 O.6.$X$X#X6.:.;.0.r.&.> o                                             ",
"                                            @ $ 8 z #.=.=.=.;.>.;.;.=.k &                                               ",
"                                            + $ 9 k p 1 < a #.6.:.+.i : $ #                                             ",
"                                            + % 9 k 6 : ; i #.6.:.+.1 ; $ +                                             ",
"                                            + % 9 l p < < a %.>.:.+.8 : $ #                                             ",
"                                            + & 9 l a a p j &.>.:.%.h , $ +                                             ",
"                                            + $ 9 z Y T z @.&.>.;.=.O.0 & +                                             ",
"                                            # $ 8 Y $.=.&.=.;.:.;.;.&.j * O                                             ",
"                                              $ 3 k @.=.;.:.;.>.6.>.%.k *                                               ",
"                                                * , 0 @.-.;.;.8.r.5.a ,                                                 ",
"                                                + $ 9 O.&.:.;.8.e.&.= .                                                 ",
"                                                # % 9 Y &.:.;.6.7.+.= O                                                 ",
"                                                + & 9 Y *.;.:.6.8.$.= O                                                 ",
"                                              # + & 0 O.=.;.;.9.#X;.3 + #                                               ",
"                                            # # * 8 l $.-.:.;.7.w.6.x 3 # +                                             ",
"                                          # # & 9 x *.;.;.;.:.:.5.:.-.z = # #                                           ",
"                                          $ = 8 x %.;.>.6.:.:.:.:.:.:.%.j 3 $                                           ",
"                                          $ 7 l %.;.;.-.-.-.-.-.-.;.:.:.-.k &                                           ",
"                                          $ 3 z &.-.T g g h g f f $.q.w.:.h &                                           ",
"                                          $ 9 O.&.$.f $ # # $ # # c q.e.6.j &                                           ",
"                                          & T 8.%.0 =             9 c 5.e.@.%                                           ",
"                                          & $.8.Y $                 $ z 8.@.&                                           ",
"                                            0 h 3 #                 # = h 0                                             ",
"                                              # # #                 # # #                                               "
};
