/* XPM */
static char *_c44a6ea89cc47f7a05209e799666034kETQ4GZItJ1gWJJp[] = {
/* columns rows colors chars-per-pixel */
"32 32 9 1 ",
"  c None",
". c #1C1117",
"X c #241729",
"o c #483B3A",
"O c #3D734F",
"+ c #775C55",
"@ c #4BA747",
"# c #97DA3F",
"$ c #AA8D7A",
/* pixels */
"                                ",
"                                ",
"              ...               ",
"            ..OOO.. ...         ",
"           .OOO@OOO.OOO..       ",
"           .O@@@@@OOO@OOO.      ",
"          .OO@O@#@@@@@#@O.      ",
"        ..OO@@@@@@O#OO@@OO.     ",
"       .OOO@#@O@@O@@@@@@@O.     ",
"      .OO@@@@@#@@@#@@#@#OO.     ",
"     .OO@@#O@@@..@@O@.@@O.      ",
"     .O@@.@@@OO..#@@@.o@O.      ",
"    .OO@@@@@@#@@@@@@#.@#OO.     ",
"    .O@#@.o#@@O..O@O@o@@@O.     ",
"    .OO@@O.@@.O..O.@@@#@OO.     ",
"     .O@@@@@o...+..#@O@@O.      ",
"     .OOO@O.oo.++.++.@OOO.      ",
"      ..OOO..o+++++$.OO..       ",
"        ... .o+++++....         ",
"            .o$$++$.            ",
"            .oXX++X.            ",
"            .oXX++X.            ",
"            .ooo++o.            ",
"            .o+++++.            ",
"             .o++$.             ",
"             .o+++.             ",
"            ..o++$..            ",
"           ..o+++++..           ",
"           .o+++++++.           ",
"           .o+....$+.           ",
"           .$.    .$.           ",
"            ..    ..            "
};
