/* XPM */
static char *_7e2b4d5d3f34d20d19d9b4695fc593bJokTJxAFjesLxQlv[] = {
/* columns rows colors chars-per-pixel */
"32 32 11 1 ",
"  c None",
". c #1C1117",
"X c #483B3A",
"o c #62232F",
"O c #314152",
"+ c #9F294E",
"@ c #487085",
"# c #417089",
"$ c #5A8CA6",
"% c #E2B694",
"& c #FCCBA3",
/* pixels */
"                                ",
"                                ",
"                                ",
"                                ",
"                                ",
"                                ",
"                                ",
"                                ",
"                                ",
"                                ",
"                                ",
"                                ",
"                                ",
"                                ",
"                                ",
"            ........            ",
"       ..  .%%%%%%%%.  ..       ",
"      .$.  .%&&&&&&&.  .$.      ",
"      .$.  .%&&&&&&&.  .$.      ",
"      .$.  .%&XX&&&X.  .$.      ",
"      .$.  .%&XX&&&X.  .$.      ",
"      .$.  .%&%%+++%.  .$.      ",
"     ..... .+++++++o. .....     ",
"     .@@@. .oooooooo. .@@@.     ",
"     ..... .###OO&OO. .....     ",
"      .%.  .#####O##.  .%.      ",
"      ...  .########.  ...      ",
"           .XXXXXXXX.           ",
"           .OOOOOOOO.           ",
"           .OO....OO.           ",
"           .O.   .O.            ",
"           ..    ..             "
};
