/* XPM */
static char *_70b54efe3064099eedde83a55118065Pp5TTXayDBtCza56[] = {
/* columns rows colors chars-per-pixel */
"32 32 4 1 ",
"  c None",
". c #001C40",
"X c #FFC579",
"o c #FFFDF5",
/* pixels */
"  .......              .......  ",
" .ooooooo.            .ooooooo. ",
".oooooooo.            .oooooooo.",
".oooXXXXX.            .XXXXXooo.",
".ooXXXXXX.            .XXXXXXoo.",
".oo......              ......oo.",
".oo.                        .oo.",
".XX.                        .XX.",
".XX.                        .XX.",
" ..                          .. ",
"                                ",
"                                ",
"                                ",
"                                ",
"                                ",
"                                ",
"                                ",
"                                ",
"                                ",
"                                ",
"                                ",
"                                ",
" ..                          .. ",
".XX.                        .XX.",
".XX.                        .XX.",
".oo.                        .oo.",
".oo......              ......oo.",
".ooXXXXXX.            .XXXXXXoo.",
".oooXXXXX.            .XXXXXooo.",
".oooooooo.            .oooooooo.",
" .ooooooo.            .ooooooo. ",
"  .......              .......  "
};
